<svg width="372" height="2290" viewBox="0 0 372 2290" fill="none" xmlns="http://www.w3.org/2000/svg">
<path d="M110.277 1288.73C234.873 1583.72 318.954 2000.92 357.713 2270.19C361.216 2294.53 421.462 2296.7 425.818 2272.5L630.318 1136.18C630.769 1133.68 630.738 1131.11 630.227 1128.62L402.32 16.8477C398.293 -2.7993 370.785 -4.98339 363.348 13.6426C94.6972 686.531 -148.6 675.81 110.277 1288.73Z" fill="#FFD3D3"/>
<path d="M217 90.5455L310.091 90.5455V140.182H307.182V93.4546H265V137.455H262.091V93.4546H219.909V141.455H217V90.5455Z" fill="#FF4444"/>
<path d="M310.091 194.59L266.273 223.863V224.226L310.091 253.499V257.136L263.546 225.863L217 257.136V253.499L260.818 224.226V223.863L217 194.59V190.954L263.546 222.226L310.091 190.954V194.59Z" fill="#FF4444"/>
<path d="M217 311.851H310.091V339.123C310.091 344.335 308.924 348.941 306.591 352.941C304.258 356.972 301.046 360.123 296.955 362.396C292.864 364.699 288.152 365.851 282.818 365.851C277.546 365.851 272.864 364.699 268.773 362.396C264.712 360.123 261.515 356.972 259.182 352.941C256.879 348.941 255.727 344.335 255.727 339.123V313.305H258.636V339.123C258.636 343.79 259.667 347.911 261.727 351.487C263.788 355.063 266.636 357.866 270.273 359.896C273.909 361.926 278.091 362.941 282.818 362.941C287.576 362.941 291.788 361.926 295.455 359.896C299.121 357.866 301.985 355.063 304.046 351.487C306.136 347.911 307.182 343.79 307.182 339.123V314.76H217V311.851Z" fill="#FF4444"/>
<path d="M217 425.316H310.091V428.225H219.909V474.77H217V425.316Z" fill="#FF4444"/>
<path d="M263.546 601.349C254.061 601.349 245.727 599.727 238.546 596.485C231.364 593.243 225.758 588.728 221.727 582.94C217.727 577.152 215.727 570.44 215.727 562.803C215.727 555.137 217.743 548.409 221.773 542.621C225.803 536.834 231.409 532.318 238.591 529.076C245.773 525.864 254.091 524.258 263.546 524.258C273.03 524.258 281.349 525.879 288.5 529.121C295.682 532.364 301.288 536.879 305.318 542.667C309.349 548.455 311.364 555.167 311.364 562.803C311.364 570.44 309.349 577.152 305.318 582.94C301.318 588.728 295.727 593.243 288.546 596.485C281.364 599.727 273.03 601.349 263.546 601.349ZM263.546 598.44C272.455 598.44 280.273 596.94 287 593.94C293.758 590.94 299.015 586.758 302.773 581.394C306.561 576.061 308.455 569.864 308.455 562.803C308.455 555.773 306.576 549.576 302.818 544.212C299.091 538.879 293.849 534.697 287.091 531.667C280.364 528.667 272.515 527.167 263.546 527.167C254.697 527.167 246.894 528.652 240.136 531.621C233.409 534.591 228.136 538.743 224.318 544.076C220.53 549.44 218.636 555.682 218.636 562.803C218.636 569.864 220.515 576.076 224.273 581.44C228.061 586.803 233.318 590.985 240.046 593.985C246.803 596.985 254.636 598.47 263.546 598.44Z" fill="#FF4444"/>
<path d="M217 660.996H310.091V688.268C310.091 693.48 308.985 698.086 306.773 702.086C304.561 706.117 301.47 709.268 297.5 711.541C293.53 713.844 288.879 714.996 283.546 714.996C278.273 714.996 273.652 713.844 269.682 711.541C265.743 709.268 262.667 706.117 260.455 702.086C258.273 698.086 257.182 693.48 257.182 688.268V662.45H260.091V688.268C260.091 692.935 261.061 697.056 263 700.632C264.939 704.208 267.667 707.011 271.182 709.041C274.697 711.071 278.818 712.086 283.546 712.086C288.303 712.086 292.455 711.071 296 709.041C299.546 707.011 302.288 704.208 304.227 700.632C306.197 697.056 307.182 692.935 307.182 688.268V663.905H217V660.996ZM259.364 696.45L217 719.359V716.086L259.364 693.177V696.45Z" fill="#FF4444"/>
<path d="M217 775.586H310.091V825.222H307.182V778.495H265V822.495H262.091V778.495H219.909V826.495H217V775.586Z" fill="#FF4444"/>
<path d="M310.091 958.016V960.561L221.364 998.561V998.925L310.091 1036.92V1039.47H217V1036.56H301V1036.2L217 1000.2V997.288L301 961.288V960.925H217V958.016H310.091Z" fill="#FF4444"/>
<path d="M217 1104.36H310.091V1153.99H307.182V1107.26H265V1151.26H262.091V1107.26H219.909V1155.26H217V1104.36Z" fill="#FF4444"/>
</svg>
