<svg width="1920" height="1869" viewBox="0 0 1920 1869" fill="none" xmlns="http://www.w3.org/2000/svg">
<path d="M176.5 910.5C81.8235 698.584 22.8798 381.179 -5.71803 162.059C-8.88577 137.787 -65.5323 135.042 -70.1097 159.088L-225.239 974C-225.741 976.64 -225.707 979.353 -225.137 981.979L-36.2531 1853.08C-33.7207 1864.76 -21.2582 1871.53 -10.0223 1867.46C450.113 1700.79 387.277 1382.29 176.5 910.5Z" fill="#FF6565"/>
<path d="M1739.57 406.112C1884.7 691.564 1998.06 1101.78 2055.75 1367.63C2060.96 1391.66 2121.21 1389.57 2123.84 1365.13L2247.54 217.198C2247.81 214.67 2247.6 212.113 2246.91 209.665L1941.01 -883.227C1935.6 -902.54 1908.01 -902.775 1901.91 -883.67C1681.48 -193.479 1438.03 -186.982 1739.57 406.112Z" fill="#EFEFEF"/>
</svg>
