<svg width="374" height="2603" viewBox="0 0 374 2603" fill="none" xmlns="http://www.w3.org/2000/svg">
<path d="M121.637 1476.04C262.979 1810.53 357.052 2287.52 398.09 2583.04C401.472 2607.39 460.829 2609.81 465.186 2585.61L695.318 1307.48C695.769 1304.97 695.738 1302.4 695.227 1299.91L442.331 66.8146C438.302 47.1706 410.759 45.1608 403.355 63.7968C106.013 812.198 -164.735 798.344 121.637 1476.04Z" fill="#E2E2E2" fill-opacity="0.43"/>
<path d="M284 0.681764L352.364 0.681763V2.81813L286.136 2.81813V36.9999H284V0.681764Z" fill="#FF4444"/>
<path d="M352.364 125.937V128.073H307.1C302.471 128.073 298.332 126.994 294.682 124.835C291.055 122.699 288.184 119.784 286.07 116.089C283.978 112.395 282.932 108.2 282.932 103.505C282.932 98.8539 283.989 94.6702 286.103 90.9538C288.217 87.2374 291.088 84.2999 294.715 82.1413C298.365 79.9827 302.493 78.9145 307.1 78.9368H352.364V81.0731L307.1 81.0731C302.871 81.0731 299.099 82.0412 295.783 83.9772C292.468 85.9356 289.853 88.606 287.939 91.9886C286.025 95.3712 285.068 99.21 285.068 103.505C285.068 107.8 286.025 111.639 287.939 115.021C289.853 118.404 292.468 121.063 295.783 122.999C299.099 124.958 302.871 125.937 307.1 125.937H352.364Z" fill="#FF4444"/>
<path d="M352.364 170.01L320.185 191.507V191.774L352.364 213.271V215.942L318.182 192.976L284 215.942V213.271L316.179 191.774V191.507L284 170.01V167.339L318.182 190.305L352.364 167.339V170.01Z" fill="#FF4444"/>
<path d="M352.364 302.183V304.319H307.1C302.471 304.319 298.332 303.24 294.682 301.082C291.055 298.945 288.184 296.03 286.07 292.336C283.978 288.642 282.932 284.447 282.932 279.751C282.932 275.1 283.989 270.917 286.103 267.2C288.217 263.484 291.088 260.546 294.715 258.388C298.365 256.229 302.493 255.161 307.1 255.183H352.364V257.319H307.1C302.871 257.319 299.099 258.288 295.783 260.224C292.468 262.182 289.853 264.852 287.939 268.235C286.025 271.617 285.068 275.456 285.068 279.751C285.068 284.046 286.025 287.885 287.939 291.268C289.853 294.65 292.468 297.31 295.783 299.246C299.099 301.204 302.871 302.183 307.1 302.183H352.364Z" fill="#FF4444"/>
<path d="M284 351.063H352.364L352.364 371.091C352.364 374.919 351.551 378.302 349.927 381.239C348.302 384.199 346.033 386.513 343.117 388.182C340.202 389.874 336.786 390.719 332.869 390.719C328.997 390.719 325.604 389.874 322.688 388.182C319.795 386.513 317.537 384.199 315.912 381.239C314.31 378.302 313.509 374.919 313.509 371.091V352.131H315.645L315.645 371.091C315.645 374.519 316.357 377.545 317.781 380.171C319.206 382.797 321.208 384.855 323.79 386.346C326.371 387.837 329.398 388.583 332.869 388.583C336.363 388.583 339.412 387.837 342.016 386.346C344.619 384.855 346.633 382.797 348.058 380.171C349.504 377.545 350.227 374.519 350.227 371.091V353.199H284V351.063ZM315.111 377.1L284 393.924V391.52L315.111 374.697V377.1Z" fill="#FF4444"/>
<path d="M352.364 423.585V426.255L318.85 449.088V449.355L352.364 472.187V474.858L316.446 450.289H284V448.153H316.446L352.364 423.585Z" fill="#FF4444"/>
<path d="M284 565.908H352.364V602.627H350.227V568.044H319.25V599.422H317.114V568.044H284V565.908Z" fill="#FF4444"/>
<path d="M284 632.396V630.127L352.364 654.561V657.499L284 681.933V679.664L349.693 656.164V655.896L284 632.396ZM309.236 640.141V671.919H307.1V640.141H309.236Z" fill="#FF4444"/>
<path d="M284 721.041H352.364V742.405C352.364 746.232 351.663 749.504 350.261 752.219C348.881 754.956 346.889 757.048 344.286 758.494C341.704 759.963 338.611 760.697 335.006 760.697C332.335 760.697 329.876 760.286 327.629 759.462C325.381 758.661 323.489 757.482 321.954 755.924C320.441 754.366 319.406 752.486 318.85 750.283H318.582C318.382 752.753 317.525 754.978 316.012 756.959C314.499 758.939 312.496 760.497 310.004 761.632C307.511 762.789 304.674 763.368 301.492 763.368C297.975 763.368 294.904 762.622 292.279 761.131C289.653 759.663 287.616 757.526 286.17 754.722C284.723 751.941 284 748.591 284 744.675V721.041ZM286.136 723.178V744.675C286.136 749.682 287.538 753.688 290.342 756.692C293.169 759.718 296.885 761.232 301.492 761.232C304.652 761.232 307.444 760.519 309.87 759.095C312.296 757.671 314.198 755.713 315.578 753.22C316.958 750.75 317.648 747.902 317.648 744.675V723.178H286.136ZM319.784 723.178V744.675C319.784 747.79 320.485 750.372 321.887 752.419C323.289 754.466 325.147 756.002 327.462 757.026C329.776 758.049 332.291 758.561 335.006 758.561C339.857 758.561 343.607 757.115 346.255 754.222C348.903 751.329 350.227 747.39 350.227 742.405V723.178H319.784Z" fill="#FF4444"/>
<path d="M284 806.64H352.364V826.668C352.364 830.496 351.551 833.879 349.927 836.816C348.302 839.776 346.033 842.09 343.117 843.759C340.202 845.451 336.786 846.296 332.869 846.296C328.997 846.296 325.604 845.451 322.688 843.759C319.795 842.09 317.537 839.776 315.912 836.816C314.31 833.879 313.509 830.496 313.509 826.668V807.708H315.645V826.668C315.645 830.095 316.357 833.122 317.781 835.748C319.206 838.374 321.208 840.432 323.79 841.923C326.371 843.414 329.398 844.16 332.869 844.16C336.363 844.16 339.412 843.414 342.016 841.923C344.619 840.432 346.633 838.374 348.058 835.748C349.504 833.122 350.227 830.095 350.227 826.668V808.776H284V806.64ZM315.111 832.677L284 849.501V847.097L315.111 830.273V832.677Z" fill="#FF4444"/>
<path d="M352.364 891.988H284V889.852H352.364V891.988Z" fill="#FF4444"/>
<path d="M331 989.337V987.067C333.27 986.644 335.584 985.821 337.943 984.597C340.302 983.373 342.483 981.749 344.486 979.723C346.489 977.698 348.102 975.306 349.326 972.547C350.55 969.787 351.162 966.66 351.162 963.167C351.162 958.493 349.882 954.165 347.323 950.182C344.786 946.22 341.059 943.027 336.141 940.601C331.245 938.198 325.259 936.996 318.182 936.996C311.016 936.996 304.985 938.198 300.09 940.601C295.194 943.027 291.488 946.22 288.974 950.182C286.459 954.165 285.202 958.493 285.202 963.167C285.202 966.66 285.803 969.787 287.004 972.547C288.228 975.306 289.831 977.698 291.811 979.723C293.814 981.749 295.995 983.373 298.354 984.597C300.735 985.821 303.072 986.644 305.364 987.067V989.337C302.96 988.914 300.457 988.069 297.853 986.8C295.272 985.532 292.857 983.818 290.609 981.66C288.362 979.501 286.537 976.886 285.135 973.815C283.755 970.744 283.065 967.195 283.065 963.167C283.065 957.559 284.534 952.63 287.472 948.379C290.409 944.129 294.515 940.813 299.789 938.432C305.063 936.05 311.194 934.86 318.182 934.86C325.17 934.86 331.301 936.05 336.575 938.432C341.849 940.813 345.955 944.129 348.892 948.379C351.83 952.63 353.298 957.559 353.298 963.167C353.298 967.195 352.609 970.744 351.229 973.815C349.849 976.886 348.035 979.501 345.788 981.66C343.562 983.818 341.148 985.532 338.544 986.8C335.963 988.069 333.448 988.914 331 989.337Z" fill="#FF4444"/>
<path d="M335.273 1068.63C339.946 1068.29 343.785 1066.5 346.789 1063.25C349.793 1060.03 351.296 1055.76 351.296 1050.47C351.296 1047 350.628 1043.89 349.293 1041.15C347.957 1038.42 346.122 1036.26 343.785 1034.68C341.471 1033.1 338.811 1032.31 335.807 1032.31C334.071 1032.31 332.469 1032.6 331 1033.18C329.531 1033.76 328.185 1034.63 326.961 1035.81C325.759 1037.02 324.669 1038.52 323.69 1040.32C322.733 1042.14 321.876 1044.28 321.119 1046.73L318.716 1054.47C317.804 1057.43 316.78 1059.99 315.645 1062.15C314.51 1064.31 313.23 1066.09 311.806 1067.49C310.404 1068.92 308.835 1069.97 307.1 1070.66C305.386 1071.35 303.472 1071.7 301.358 1071.7C297.797 1071.7 294.626 1070.79 291.845 1068.96C289.063 1067.14 286.882 1064.59 285.302 1061.32C283.722 1058.05 282.932 1054.25 282.932 1049.93C282.932 1045.77 283.655 1042.13 285.102 1039.02C286.57 1035.9 288.584 1033.43 291.144 1031.61C293.725 1029.81 296.685 1028.79 300.023 1028.57V1030.71C297.085 1030.93 294.493 1031.85 292.245 1033.48C289.997 1035.1 288.239 1037.3 286.971 1040.09C285.703 1042.89 285.068 1046.17 285.068 1049.93C285.068 1053.85 285.747 1057.28 287.104 1060.21C288.484 1063.17 290.398 1065.47 292.846 1067.09C295.294 1068.74 298.131 1069.56 301.358 1069.56C303.806 1069.56 305.953 1069.03 307.801 1067.96C309.67 1066.89 311.317 1065.21 312.741 1062.92C314.165 1060.63 315.445 1057.63 316.58 1053.94L318.983 1046.2C320.674 1040.83 322.911 1036.82 325.693 1034.14C328.474 1031.5 331.846 1030.17 335.807 1030.17C339.167 1030.17 342.172 1031.05 344.82 1032.81C347.49 1034.57 349.593 1036.97 351.129 1040.02C352.664 1043.09 353.432 1046.57 353.432 1050.47C353.432 1054.38 352.653 1057.82 351.095 1060.78C349.538 1063.74 347.39 1066.09 344.653 1067.83C341.916 1069.56 338.789 1070.54 335.273 1070.76V1068.63Z" fill="#FF4444"/>
</svg>
